<?xml version="1.0" encoding="UTF-8"?><svg id="Calque_1" xmlns="http://www.w3.org/2000/svg" viewBox="0 0 150 150"><defs><style>.cls-1{fill:#fff;}</style></defs><g id="logo"><path class="cls-1" d="m66.58,83.25c.17-.28.26-.41.33-.55.25-.45.48-.92.75-1.35,1.2-1.91,2.68-3.44,5.18-3.14,2.44.3,4.13,1.71,5.07,3.96,1.08,2.58.99,5.26.42,7.93-.51,2.38-1.36,4.64-3.01,6.51-1.25,1.42-2.55,1.78-4.14,1.2-1.81-.66-2.58-2.21-2.11-4.1.34-1.36,1.14-2.41,2.16-3.27.78-.66,1.69-1.17,2.51-1.8.23-.18.5-.55.47-.8-.13-1.26-.26-2.53-.56-3.76-.32-1.31-1.59-1.92-2.82-1.27-.9.48-1.69,1.25-2.37,2.02-.95,1.07-1.42,2.32-1.37,3.86.15,4.8.26,9.62.16,14.42-.09,4.19-.63,8.34-2.46,12.2-1.22,2.57-2.87,4.74-5.54,5.96-1.8.82-3.67.97-5.56.35-4.02-1.31-5.48-5.41-3.19-8.98,1.53-2.39,3.9-3.63,6.46-4.59.55-.21,1.13-.35,1.83-.57-.12.77-.19,1.43-.35,2.08-.04.17-.33.33-.54.42-1.77.81-3.22,2.01-4.37,3.57-.35.47-.62,1.03-.82,1.58-.43,1.2-.2,2.21.54,2.75.8.59,2.4.58,3.2-.19.65-.63,1.32-1.39,1.58-2.22.67-2.08,1.36-4.2,1.62-6.36.42-3.52.54-7.09.71-10.64.11-2.36.09-4.72.13-7.08,0-.29,0-.58-.1-.9-.87.73-1.87,1.19-1.89,2.65-.04,2.94-.9,5.68-2.7,8.05-1.34,1.76-2.76,2.16-4.54,1.37-1.42-.63-2-1.57-1.58-3.05.28-.99.74-2,1.37-2.82.91-1.17,2.06-2.16,3.06-3.25.21-.23.4-.62.36-.9-.14-.91-.32-1.82-.62-2.68-.32-.94-1.11-1.38-2.1-1.35-1.27.04-2.9,1.4-3.1,2.6-.59,3.56-1.22,7.11-1.76,10.68-.74,4.91-.74,9.85-.52,14.8.05,1.22.14,2.43.23,3.88-1.63-.73-3.14-1.42-3.82-2.99-.59-1.38-1.09-2.86-1.28-4.34-.29-2.28-.28-4.6-.39-6.9-.01-.3,0-.59,0-1.09-.26.26-.4.38-.53.52-1,.99-1.89,2.14-3.02,2.94-3.26,2.29-6.48.9-7.16-3.05-.19-1.08-.18-2.2-.28-3.41-.91.22-1.81.39-2.67.67-.19.06-.32.53-.35.82-.2,1.92-.28,3.85-.57,5.75-.58,3.74-2.21,6.89-5.67,8.76-4.37,2.36-8.95.24-9.73-5.31-.41-2.91.9-5.17,2.98-7.05,2.49-2.24,5.43-3.77,8.59-4.69,1.91-.56,2.56-1.56,2.82-3.39.37-2.68.97-5.34,1.57-7.98.53-2.32,1.43-4.5,2.98-6.35.06-.07.09-.18.19-.41-2.88.37-5.47,1.12-7.51,3.13-2.14,2.11-2.49,4.72-1.97,7.53-2.73,1.3-6.82-.35-7.42-2.99-.4-1.78.29-3.26,1.41-4.56,1.09-1.26,2.49-2.13,4.07-2.61,5.06-1.52,10.22-2.48,15.5-2.84.3-.02.6,0,.9,0,.76-.04,1.28.36,1.27,1.07,0,1.4-.11,2.8-.28,4.19-.42,3.44-.91,6.88-1.36,10.32-.04.29,0,.59,0,1.07,2.22-1.16,3.96-2.58,5.12-4.66.43,1.63-.2,3.88-1.67,5.31-.84.82-1.86,1.49-2.85,2.13-.45.29-.69.56-.59,1.09.23,1.2.35,2.42.69,3.58.33,1.11.97,1.27,2.02.78,1.54-.71,2.58-1.98,3.5-3.33.33-.48.23-1.25.3-1.89.31-3.05.58-6.1.9-9.15.32-2.98.42-5.95-.2-9.02,1.55-.12,2.96.07,4.25.85,1.33.8,1.86,2.13,2.28,3.7,1.56-2.04,3.42-2.65,5.74-1.75,2.21.85,3.37,2.54,3.94,4.73,1.41-.58,2.22-1.74,2.18-3.15-.08-2.82-.66-5.55-1.64-8.19-.11-.3-.23-.61-.38-1.03,1.98-.32,3.82-.26,5.43.99,1.55,1.21,2.13,3,2.7,4.94Zm-42.36,20.25c-3.55.47-6.7,1.39-8.99,4.07-.67.78-1.19,1.77-1.49,2.76-.63,2.09.43,3.67,2.55,4.21,1.74.44,3.04-.25,4.07-1.54,2.17-2.74,2.88-6.08,3.87-9.49Zm3.29-3.91c.92-.22,1.69-.36,2.42-.61.23-.08.48-.44.53-.7.84-4.64,1.65-9.28,2.46-13.92.04-.22.03-.44.06-.92-.54.48-.98.74-1.24,1.12-.58.87-1.18,1.77-1.58,2.73-1.18,2.82-1.71,5.81-2.17,8.81-.17,1.11-.31,2.23-.48,3.49Zm46.57-8.8c-.12-.09-.24-.17-.35-.26-.33.42-.68.82-1,1.25-.7.95-1.42,1.9-2.05,2.9-.14.22-.06.79.13.93.27.21.75.28,1.1.21.3-.06.62-.35.81-.62.94-1.32,1.2-2.85,1.37-4.41Zm-19.64,4.76c-.09-.05-.19-.11-.28-.16-.87,1.21-1.78,2.41-2.6,3.66-.28.42-.75,1.06-.05,1.49.65.4,1.17-.09,1.6-.56.11-.12.2-.26.27-.4.69-1.26.95-2.62,1.05-4.03Z"/><path class="cls-1" d="m56.12,58.09c-.86.45-1.69.89-2.44,1.28.45,1.37,1.03,2.62,1.26,3.94.81,4.72-.44,8.78-4.29,11.82-1.55,1.22-3.4,1.72-5.37,1.46-2.93-.38-5-2.97-5.02-6-.01-3.17,1.58-5.53,3.74-7.59,1.19-1.14,2.56-2.09,3.92-3.19-.73-1.4-2-2.1-3.56-2.37-2.12-.38-4.16-.05-6.14.75-.46.18-.59.41-.52.92.46,3.34.84,6.69.23,10.05-.16.9-.39,1.81-.73,2.66-1.35,3.46-4.06,5.02-7.63,5.28-1.72.13-3.41,0-5.02-.73-4.06-1.85-4.08-7.36-1.57-9.83,1.76-1.72,4.81-1.29,5.97.68-.64.64-1.38,1.16-1.83,1.87-.68,1.06-.49,2.3.24,3.01.72.7,2.19.8,3.2.21,1.07-.63,1.65-1.64,2.05-2.75.77-2.18,1.06-4.44.98-6.73-.12-3.58-.39-7.16-.49-10.74-.04-1.45.13-2.92.34-4.36.12-.81.51-1.58.82-2.5-2.49,1.01-4.38,2.52-5.32,5.05-1.27,3.41-.34,7.11,2.58,10.09-1.49.6-2.93,1.07-4.47.45-1.45-.58-1.9-1.87-2.08-3.26-.32-2.53.22-4.93,1.31-7.2,2.46-5.13,6.29-8.69,11.96-9.9,1.44-.31,2.98-.36,4.45-.23,3.45.31,5.44,3.2,4.79,6.7-.43,2.32-1.58,4.26-3.19,5.94-.24.25-.57.4-.78.75,1.75.03,3.43,0,4.87.88,1.37.84,2.63,1.87,4.12,2.95.81-.34,1.91-.78,2.99-1.27.16-.07.28-.36.3-.56.1-1.38.19-2.76.22-4.14,0-.26-.2-.59-.42-.76-1.43-1.15-2.51-2.52-2.75-4.37-.33-2.46.86-4.52,3.13-5.65,5.7-2.85,11.8-.26,13.73,5.82.09.28.17.55.31,1.01.56-.52,1.02-.92,1.46-1.35.37-.36.68-.79,1.08-1.11,1.89-1.53,2.09-3.47,1.4-5.63-.11-.35-.18-.72-.28-1.09,1.87-.31,3.71.61,4.64,2.29.73,1.32.94,2.77,1,4.24.04,1.08,0,2.16,0,3.39.16-.28.26-.47.37-.66,1.21-2.21,2.37-4.45,3.65-6.62.44-.75,1.11-1.42,1.78-1.99,1.88-1.6,4.44-.88,5.25,1.46.59,1.69.46,3.44.12,5.15-.49,2.44-1.14,4.86-1.6,7.3-.18.97-.16,2.01-.07,3,.22,2.24,1.66,3.12,3.79,2.41,1.56-.52,2.58-1.65,3.31-3.08.71-1.4.96-2.89.75-4.43-.24-1.8-1.2-3.05-3.01-3.53.96-2.84,3.59-3.76,5.96-2.09,2.2,1.55,2.7,3.81,2.31,6.29-.64,4.03-4.74,8.1-8.75,8.8-4.57.8-8.53-1.9-9.59-6.41-.53-2.24-.2-4.42.12-6.62.1-.73.12-1.47.17-2.2-.12-.04-.25-.09-.37-.13-.3.44-.71.84-.9,1.33-1.23,3.19-2.44,6.38-3.59,9.59-.5,1.39-.75,2.83-.39,4.32.1.42.12.86.19,1.39-1.81-.17-3.24-.91-4.25-2.37-1.14-1.65-1.54-3.55-1.5-5.49.04-1.97.34-3.94.53-5.91.02-.23.06-.47.1-.85-1.14.97-2.21,1.79-3.15,2.74-.25.26-.13.92-.12,1.39.03,2.38-.05,4.75-1.06,6.94-1.43,3.1-3.76,5.11-7.31,5.28-2.5.12-4.22-1.16-5.27-3.37-.27-.56-.45-1.15-.71-1.84Zm.51-8.85c2.1-2.76,4.66-3.58,7.08-2.25-1.21.98-1.86,2.28-2.29,3.74.13.07.2.13.27.13,2.19.1,4.17-.58,6.01-1.71.14-.09.21-.47.16-.68-.58-2.32-1.69-4.34-3.62-5.83-2.87-2.23-7.04-1.62-8.98,1.31-1.29,1.94-.67,4.33,1.37,5.29Zm11.71,1.85c-.4.17-.67.27-.93.39-1.72.79-3.52,1.29-5.41,1.34-1.42.04-1.14-.06-1.3,1.17-.2,1.59-.23,3.2.35,4.74.36.96,1.08,1.57,1.82,1.51,1.07-.09,2.08-.42,2.88-1.17,2.28-2.14,2.61-4.91,2.59-7.97Zm-31.08,4.09c1.01-.87,1.86-1.56,2.67-2.31,1.26-1.16,2.43-2.41,3.14-4,.72-1.63.24-2.91-1.37-3.71-1.26-.63-2.6-.68-3.97-.65-.53.01-.8.18-.79.75.05,2.63.07,5.25.12,7.88.01.61.11,1.21.2,2.04Zm11.84,7.08c-1.68,1.18-3.07,2.34-4.15,3.82-.48.65-.88,1.37-1.18,2.12-.49,1.22-.3,2.41.48,3.47.73,1,1.61,1.11,2.6.36.21-.16.42-.35.59-.56,2.26-2.69,2.27-5.77,1.67-9.21Z"/><path class="cls-1" d="m120.96,65.97c-1.39,0-2.71-.03-4.03.01-.98.03-1.35-.29-1.26-1.28.04-.44.18-.71.73-.76,1.51-.13,3.02-.32,4.52-.55.25-.04.63-.38.65-.61.25-2.44.25-4.85-1.46-6.88,1.38-.87,4.64-1.12,5.98.19,1.65,1.61,1.67,3.74,1.9,5.8,2.51-.48,5.97-3.16,6.98-7.12.86-.16,1.44.31,1.86.97.82,1.27.83,2.67.5,4.09-.51,2.17-1.86,3.62-3.98,4.23-1.56.45-3.17.72-4.76,1.04-.49.1-.81.21-.91.8-.61,3.36-1.3,6.71-1.91,10.07-.56,3.05-1.04,6.12-.4,9.21.17.84.47,1.69.9,2.42,1.09,1.83,3.55,2.04,5.29.49.43-.39.83-.88,1.08-1.41,1.34-2.82,1.37-7.48-2.14-10-.13-.09-.24-.21-.42-.36.91-1.55,2.23-2.45,3.97-2.67.61-.08,1.25-.05,1.87.01,1.82.19,2.93,1.2,3.51,2.93,1.45,4.34-.91,12.12-6.91,14.12-2.95.98-5.85.74-8.63-.58-1.99-.95-3.2-2.63-3.98-4.65-.72-1.86-.86-3.8-.91-5.76,0-.26-.03-.51-.24-.83-.25.46-.47.94-.77,1.36-.99,1.39-1.88,2.88-3.06,4.1-2.08,2.16-4.71,2.22-7.11.4-.08-.06-.18-.11-.33-.21-.29.54-.57,1.06-.85,1.58-.83,1.52-1.81,2.92-3.27,3.89-1.66,1.1-3.47,1.6-5.24.33-.67-.48-1.07-1.38-1.53-2.13-.22-.36-.3-.81-.5-1.4-.25.36-.43.6-.58.85-1.32,2.13-2.76,4.17-4.82,5.68-1.03.75-2.15,1.29-3.42,1.4-1.98.17-3.53-.66-4.74-2.19-1.49-1.89-2.02-4.13-2.24-6.44-.23-2.37-.08-4.72.62-7.01,1.18-3.85,5.46-6,9.27-4.69,2.85.98,3.94,3.75,2.63,6.72-.86,1.95-2.37,3.29-4.15,4.34-.77.45-1.58.84-2.39,1.22-.38.18-.59.37-.43.8,0,.02.01.05.02.08.56,3.11,2.42,3.97,4.86,1.99,1.77-1.44,3.24-3.26,4.83-4.93.15-.15.22-.45.2-.67-.3-4.49.53-8.87,1.34-13.24.51-2.71.71-5.43.13-8.16-.03-.13-.02-.26-.02-.39,3.44-.58,5.51.68,6.3,3.72.53,2.06.55,4.17.23,6.23-.61,4.05-1.4,8.07-2.09,12.11-.12.69-.22,1.4-.22,2.1,0,.94.62,1.32,1.41.81.72-.46,1.35-1.09,1.91-1.74.61-.69,1.11-1.47,1.62-2.24.12-.18.19-.48.14-.68-.55-2.18-.11-4.31.23-6.46.33-2.11.58-4.24.79-6.37.06-.59.24-.8.79-.67,1.15.28,2.35.45,3.43.91,1.34.57,1.93,1.88,1.61,3.31-.48,2.14-1.09,4.26-1.59,6.39-.18.78-.32,1.61-.27,2.4.03.42.43.99.8,1.15.33.14,1.02-.06,1.28-.36.98-1.08,1.95-2.19,2.75-3.41,1.05-1.61,2.06-3.28,2.85-5.02.49-1.08.54-2.36.79-3.55.34-1.61.68-3.22,1.02-4.83Zm-35.24,19.37c2.16-1.41,4.1-2.99,5.19-5.36.25-.56.34-1.19-.17-1.67-.63-.59-1.42-.69-2.2-.39-.39.15-.78.42-1.05.74-1.6,1.93-1.8,4.26-1.76,6.69Z"/><path class="cls-1" d="m67.97,108.34c.1-.71.02-1.42.32-1.85.38-.56,1.03-1.01,1.66-1.31,6.14-2.87,12.62-4,19.38-3.89,4.13.07,8.26-.02,12.38-.14,1.32-.04,2.65-.28,3.93-.61,1.72-.45,2.45-1.41,2.43-2.83-.03-1.67-.97-2.85-2.63-3.29-.34-.09-.69-.14-1.17-.24.27-.28.48-.54.73-.76,2.98-2.52,6.39-3.21,10.14-2.26.79.2,1.55.5,2.31.79,3.89,1.47,5.32,5.15,4.7,8.77-.89,5.15-4.28,8.01-9.11,9.31-4.01,1.07-8.03.62-12-.4-6.41-1.65-12.91-2.68-19.54-2.75-4.3-.04-8.57.3-12.76,1.34-.21.05-.42.06-.76.11Z"/><path class="cls-1" d="m76.25,75.26c-1.82.37-3.51.5-5.22.2-3.75-.67-5.19-4.67-2.8-7.77,1.09-1.42,2.63-2.16,4.27-2.71,2.89-.97,5.9-1.19,8.92-1.19,4.24,0,8.45.4,12.6,1.35.34.08.68.21,1.02.28.61.12.8.48.64,1.09-.65,0-1.3,0-1.94,0-4.38-.06-8.75-.08-13.06.86-1.29.28-2.58.68-3.77,1.24-2.61,1.22-3.07,3.19-1.43,5.57.23.33.47.65.78,1.08Z"/><path class="cls-1" d="m113.75,52.71c.12-1.35.6-2.51,1.27-3.6,2.5-4.08,8.23-6.43,12.57-5.14,1.51.45,2.75,1.31,3.53,2.71.79,1.43.94,2.91-.08,4.29-1.01,1.36-2.49,1.47-3.98,1.13-.91-.21-1.8-.6-2.65-1-3.79-1.79-7.25-1.39-10.39,1.44-.06.05-.13.08-.26.16Z"/><path class="cls-1" d="m109.13,52.01c-.5-3.29-2.3-5.5-4.92-7.11-1.18-.73-2.2-1.58-2.69-2.95-.67-1.88-.02-3.48,1.79-4.31,2.45-1.14,4.77-.4,6.18,2.04,1.26,2.19,1.64,4.58,1.42,7.07-.16,1.83-.62,3.57-1.78,5.26Z"/><path class="cls-1" d="m113.91,45.24c-.08-2-.2-4-.23-6,0-.69.16-1.4.37-2.07.17-.53.46-1.05.79-1.5.94-1.29,2.33-1.72,3.56-1.15,1.49.7,2.38,2.23,1.93,3.72-.3.99-.74,2.04-1.43,2.78-1.45,1.56-3.1,2.93-4.67,4.38-.11-.05-.21-.11-.32-.16Z"/><path class="cls-1" d="m115.39,60.12c-.99,2.25-1.54,4.6-1.27,7.13-1.47.2-2.83.2-4.06-.59-.78-.5-.99-1.29-.96-2.19.08-3.42,3.06-5.52,6.3-4.35Z"/><path class="cls-1" d="m104.95,66.5c-.23-.65-.43-1.24-.7-2.04.92,0,1.74-.02,2.56.02.15,0,.32.24.43.4.25.38.46.77.74,1.25-1.04.13-2,.24-3.03.37Z"/></g></svg>